<svg xmlns="http://www.w3.org/2000/svg" viewBox="0 0 1200 900" preserveAspectRatio="xMidYMid slice">
  <defs>
    <linearGradient id="sky" x1="0" y1="0" x2="0" y2="1">
      <stop offset="0" stop-color="#f8f5f0"/>
      <stop offset="1" stop-color="#e1ecd3"/>
    </linearGradient>
  </defs>
  <rect width="1200" height="900" fill="url(#sky)"/>
  <circle cx="1010" cy="150" r="78" fill="#f0e7d0"/>
  <path d="M0 480 Q 300 430 600 465 T 1200 445 V900 H0 Z" fill="#a3c17e"/>
  <path d="M0 580 Q 400 520 800 570 T 1200 555 V900 H0 Z" fill="#648937"/>
  <!-- podjazd z kostki: perspektywa -->
  <path d="M430 480 L 770 480 L 1080 900 L 120 900 Z" fill="#d8c8ac"/>
  <!-- rzędy kostki -->
  <g fill="#c4b193">
    <rect x="470" y="505" width="72" height="26" rx="5"/><rect x="560" y="505" width="72" height="26" rx="5"/><rect x="650" y="505" width="72" height="26" rx="5"/>
    <rect x="430" y="555" width="86" height="30" rx="5"/><rect x="536" y="555" width="86" height="30" rx="5"/><rect x="642" y="555" width="86" height="30" rx="5"/><rect x="748" y="555" width="70" height="30" rx="5"/>
    <rect x="380" y="615" width="100" height="34" rx="6"/><rect x="502" y="615" width="100" height="34" rx="6"/><rect x="624" y="615" width="100" height="34" rx="6"/><rect x="746" y="615" width="100" height="34" rx="6"/>
    <rect x="320" y="690" width="118" height="40" rx="6"/><rect x="462" y="690" width="118" height="40" rx="6"/><rect x="604" y="690" width="118" height="40" rx="6"/><rect x="746" y="690" width="118" height="40" rx="6"/>
    <rect x="240" y="780 " width="140" height="46" rx="7"/><rect x="408" y="780" width="140" height="46" rx="7"/><rect x="576" y="780" width="140" height="46" rx="7"/><rect x="744" y="780" width="140" height="46" rx="7"/>
  </g>
  <!-- obrzeże -->
  <path d="M430 480 L 120 900 L 170 900 L 465 480 Z" fill="#4a3826" opacity="0.35"/>
  <path d="M770 480 L 1080 900 L 1030 900 L 735 480 Z" fill="#4a3826" opacity="0.35"/>
  <!-- zieleń po bokach -->
  <g fill="#31431f">
    <ellipse cx="150" cy="640" rx="120" ry="46"/>
    <ellipse cx="1040" cy="620" rx="120" ry="44"/>
  </g>
  <g fill="#4d6c2a">
    <ellipse cx="110" cy="612" rx="62" ry="32"/>
    <ellipse cx="215" cy="618" rx="54" ry="28"/>
    <ellipse cx="1000" cy="592" rx="60" ry="30"/>
    <ellipse cx="1095" cy="600" rx="52" ry="26"/>
  </g>
  <!-- drzewa -->
  <g>
    <rect x="90" y="440" width="16" height="90" rx="6" fill="#4a3826"/>
    <circle cx="98" cy="400" r="70" fill="#3c5423"/>
    <rect x="1085" y="430" width="16" height="90" rx="6" fill="#4a3826"/>
    <circle cx="1093" cy="392" r="64" fill="#3c5423"/>
  </g>
  <!-- lampy przy podjeździe -->
  <g stroke="#362819" stroke-width="10" stroke-linecap="round">
    <line x1="330" y1="560" x2="330" y2="470"/>
    <line x1="880" y1="560" x2="880" y2="470"/>
  </g>
  <circle cx="330" cy="458" r="16" fill="#f0e7d0"/>
  <circle cx="880" cy="458" r="16" fill="#f0e7d0"/>
</svg>
