<svg xmlns="http://www.w3.org/2000/svg" viewBox="0 0 1200 900" preserveAspectRatio="xMidYMid slice">
  <defs>
    <linearGradient id="sky" x1="0" y1="0" x2="0" y2="1">
      <stop offset="0" stop-color="#f8f5f0"/>
      <stop offset="1" stop-color="#e1ecd3"/>
    </linearGradient>
  </defs>
  <rect width="1200" height="900" fill="url(#sky)"/>
  <!-- budynek użyteczności publicznej w tle -->
  <g>
    <rect x="700" y="200" width="420" height="330" rx="8" fill="#ece4d6"/>
    <g fill="#d8c8ac">
      <rect x="740" y="240" width="70" height="90" rx="4"/>
      <rect x="850" y="240" width="70" height="90" rx="4"/>
      <rect x="960" y="240" width="70" height="90" rx="4"/>
      <rect x="740" y="380" width="70" height="90" rx="4"/>
      <rect x="850" y="380" width="70" height="90" rx="4"/>
      <rect x="960" y="380" width="70" height="90" rx="4"/>
    </g>
  </g>
  <path d="M0 530 Q 300 490 600 515 T 1200 500 V900 H0 Z" fill="#82a856"/>
  <!-- chodnik -->
  <path d="M0 700 L 1200 640 L 1200 730 L 0 800 Z" fill="#d8c8ac"/>
  <g stroke="#c4b193" stroke-width="6">
    <line x1="150" y1="693" x2="150" y2="792"/>
    <line x1="400" y1="680" x2="400" y2="780"/>
    <line x1="650" y1="668" x2="650" y2="767"/>
    <line x1="900" y1="655" x2="900" y2="755"/>
    <line x1="1120" y1="644" x2="1120" y2="744"/>
  </g>
  <!-- szpaler drzew formowanych -->
  <g>
    <rect x="152" y="470" width="16" height="90" rx="6" fill="#4a3826"/>
    <circle cx="160" cy="430" r="62" fill="#3c5423"/>
    <rect x="392" y="460" width="16" height="90" rx="6" fill="#4a3826"/>
    <circle cx="400" cy="420" r="62" fill="#4d6c2a"/>
    <rect x="632" y="452" width="16" height="90" rx="6" fill="#4a3826"/>
    <circle cx="640" cy="412" r="62" fill="#3c5423"/>
  </g>
  <!-- rabata miejska wzdłuż chodnika -->
  <g fill="#31431f">
    <ellipse cx="220" cy="840" rx="170" ry="46"/>
    <ellipse cx="640" cy="820" rx="180" ry="46"/>
    <ellipse cx="1040" cy="800" rx="150" ry="42"/>
  </g>
  <g fill="#648937">
    <ellipse cx="160" cy="812" rx="70" ry="30"/>
    <ellipse cx="290" cy="818" rx="64" ry="28"/>
    <ellipse cx="580" cy="794" rx="72" ry="30"/>
    <ellipse cx="710" cy="798" rx="64" ry="28"/>
    <ellipse cx="990" cy="776" rx="62" ry="26"/>
  </g>
  <!-- trawy ozdobne -->
  <g stroke="#a3c17e" stroke-width="6" stroke-linecap="round" fill="none">
    <path d="M430 830 q -10 -56 -28 -76"/>
    <path d="M445 830 q 2 -62 -4 -86"/>
    <path d="M460 830 q 12 -52 30 -72"/>
    <path d="M860 806 q -10 -52 -26 -70"/>
    <path d="M874 806 q 2 -58 -4 -80"/>
    <path d="M888 806 q 12 -48 28 -66"/>
  </g>
  <!-- ławka miejska -->
  <g>
    <rect x="1000" y="596" width="150" height="16" rx="6" fill="#4a3826"/>
    <rect x="1010" y="612" width="12" height="30" fill="#362819"/>
    <rect x="1128" y="612" width="12" height="30" fill="#362819"/>
  </g>
</svg>
